PathFileType	4	(X/Y/Z)	Kaydara	
DataRate	CameraRate	NumFrames	NumMarkers	Units	OrigDataRate	OrigDataStartFrame	OrigNumFrames	
60.00	60.00	4	74	mm	60.00	1019	121	
Frame#	Time	Z_lasi			Z_rasi			Z_rpsi			Z_lpsi			Z_fneck			Z_bneck			Z_fhead			Z_rhead			Z_lhead			Z_rshld			Z_relbtop			Z_relbext			Z_relblow			Z_rwrext			Z_rwrtop			Z_rwrlow			Z_lshld			Z_lelbext			Z_lelblow			Z_lelbtop			Z_lwrext			Z_lwrtop			Z_lwrlow			Z_rtopleg			Z_ltopleg			Z_rkneefr			Z_rkneebk			Z_rkneeis			Z_lkneefr			Z_lknssbk			Z_lkneeis			Z_rankfr			Z_rankis			Z_rankbk			Z_lankfr			Z_lankbk			Z_lankis			A_lasi			A_rasi			A_rpsi			A_lpsi			A_fneck			A_bneck			A_fhead			A_rhead			A_lhead			A_rshld			A_relbtop			A_relbext			A_relblow			A_rwrext			A_rwrtop			A_rwrlow			A_lshld			A_lelbext			A_lelblow			A_lelbtop			A_lwrext			A_lwrtop			A_lwrlow			A_rtopleg			A_ltopleg			A_rkneefr			A_rkneebk			A_rkneeis			A_lkneefr			A_lknssbk			A_lkneeis			A_rankfr			A_rankis			A_rankbk			A_lankfr			A_lankbk			A_lankis			
		X1	Y1	Z1	X2	Y2	Z2	X3	Y3	Z3	X4	Y4	Z4	X5	Y5	Z5	X6	Y6	Z6	X7	Y7	Z7	X8	Y8	Z8	X9	Y9	Z9	X10	Y10	Z10	X11	Y11	Z11	X12	Y12	Z12	X13	Y13	Z13	X14	Y14	Z14	X15	Y15	Z15	X16	Y16	Z16	X17	Y17	Z17	X18	Y18	Z18	X19	Y19	Z19	X20	Y20	Z20	X21	Y21	Z21	X22	Y22	Z22	X23	Y23	Z23	X24	Y24	Z24	X25	Y25	Z25	X26	Y26	Z26	X27	Y27	Z27	X28	Y28	Z28	X29	Y29	Z29	X30	Y30	Z30	X31	Y31	Z31	X32	Y32	Z32	X33	Y33	Z33	X34	Y34	Z34	X35	Y35	Z35	X36	Y36	Z36	X37	Y37	Z37	X38	Y38	Z38	X39	Y39	Z39	X40	Y40	Z40	X41	Y41	Z41	X42	Y42	Z42	X43	Y43	Z43	X44	Y44	Z44	X45	Y45	Z45	X46	Y46	Z46	X47	Y47	Z47	X48	Y48	Z48	X49	Y49	Z49	X50	Y50	Z50	X51	Y51	Z51	X52	Y52	Z52	X53	Y53	Z53	X54	Y54	Z54	X55	Y55	Z55	X56	Y56	Z56	X57	Y57	Z57	X58	Y58	Z58	X59	Y59	Z59	X60	Y60	Z60	X61	Y61	Z61	X62	Y62	Z62	X63	Y63	Z63	X64	Y64	Z64	X65	Y65	Z65	X66	Y66	Z66	X67	Y67	Z67	X68	Y68	Z68	X69	Y69	Z69	X70	Y70	Z70	X71	Y71	Z71	X72	Y72	Z72	X73	Y73	Z73	X74	Y74	Z74	

91	16.967	-210.05257	1073.57018	714.33975	-284.51105	1086.34048	519.42589	-119.56747	1118.87367	422.80708	-25.93567	1102.61230	650.81802	-223.12000	1436.57547	628.57262	-123.50330	1515.11444	629.26056	-350.96092	1612.22168	636.54224	-197.81170	1658.16589	583.62408	-207.38499	1624.23645	727.44087	-200.80433	1461.63025	427.13306	-308.66739	1171.71165	330.99220	-290.33499	1146.24245	386.10882	-342.42912	1229.36722	379.88140	-516.44207	1121.47057	488.73192	-529.89899	1164.79126	475.97839	-507.98958	1182.95029	508.29430	-94.41492	1425.74356	798.07526	-62.39039	1107.24777	790.36674	-115.01402	1128.58070	860.38376	-46.48571	1125.48050	858.70399	-193.26370	880.40359	850.51903	-178.99197	868.21083	894.33250	-134.18198	862.73254	881.79718	-165.21889	926.96312	379.54185	-115.17040	894.16801	741.19202	-233.48913	425.15621	411.58043	-161.46261	454.34563	364.37008	-170.02651	429.03431	486.32236	-172.92309	447.96017	694.16443	-67.06927	471.04050	674.36607	-168.76816	444.96895	600.82642	-200.10983	183.29935	378.27000	-177.91218	175.17891	440.79082	-123.92829	173.50058	372.06963	-118.93346	163.02080	680.72014	-66.05111	164.92325	618.94939	-145.54255	175.38462	613.80890	-977.67525	1034.38797	472.67181	-965.16525	1041.36375	631.79760	-1123.76060	1032.82265	652.92351	-1101.78116	1037.57217	469.78817	-1053.79494	1377.65259	567.96791	-1192.13867	1407.40906	562.81860	-996.77414	1585.27283	614.05907	-1149.24461	1532.85690	676.43044	-1133.75992	1563.82217	516.20953	-1118.69919	1353.91754	740.03899	-966.24954	1122.50328	742.69943	-999.09927	1069.07394	725.90042	-965.91202	1126.79138	686.28799	-743.37006	1138.02467	668.09494	-757.46681	1174.68338	690.71854	-773.46542	1188.14987	656.63483	-1098.06946	1351.47064	386.71165	-1121.75331	1035.75943	377.77630	-1051.96754	1053.33191	387.04609	-1085.17700	1045.20302	345.01377	-984.96506	838.26775	391.58058	-993.15872	835.52101	350.32639	-951.31775	854.45305	351.86726	-1061.53366	875.68939	733.66646	-1028.12950	889.51126	396.97613	-1021.30615	452.15244	642.03613	-1128.88344	487.52903	686.38329	-1108.18405	487.10869	568.18554	-1006.28883	464.17767	509.35757	-1092.29233	480.72357	414.72111	-1113.58871	480.14275	539.10805	-1097.54982	166.35420	664.14841	-1130.29922	163.79499	597.98443	-1178.80760	155.71643	667.01279	-1066.04874	166.27306	457.06680	-1127.37526	168.96101	421.93825	-1125.10574	173.84836	511.46957 
92	16.983	-211.65791	1073.85406	715.50583	-284.85945	1086.74438	520.10006	-119.51217	1118.63373	424.15485	-26.98846	1102.25899	652.60551	-221.83744	1438.14514	629.32175	-120.66756	1514.54453	629.62437	-344.64729	1618.81378	636.85703	-190.24509	1658.83240	582.72976	-200.04330	1626.74225	726.88057	-198.88170	1461.66718	427.52121	-305.52040	1171.07727	330.25089	-287.30986	1145.53253	385.37655	-339.60854	1228.55499	379.00661	-513.67119	1120.96291	487.26486	-526.77910	1164.50195	475.42160	-504.24660	1181.80397	507.71252	-93.72426	1425.81680	799.12582	-64.19636	1107.01378	792.16293	-116.84802	1129.02092	862.11510	-48.23136	1125.36682	860.51620	-196.35731	880.85152	853.24074	-181.90987	868.94302	897.21481	-137.20287	863.10898	884.43283	-165.31738	926.85013	380.68291	-116.84713	893.84911	742.56172	-234.32880	425.05516	412.02972	-162.29467	454.34006	365.09609	-170.97719	428.90369	487.05070	-173.90089	447.50248	694.83795	-68.36639	471.02768	675.38155	-169.67121	444.85893	601.59672	-200.41651	183.29809	378.57643	-178.21518	175.06435	441.05309	-124.23493	173.66795	372.39178	-119.78199	162.92564	681.04568	-66.28184	165.01060	619.25701	-145.82850	175.32604	613.94371	-978.05901	1034.38499	472.37797	-965.61836	1041.10840	631.57581	-1123.87947	1033.25684	652.84882	-1102.02942	1037.73308	470.26939	-1052.28416	1378.42102	568.09582	-1190.99083	1406.74393	562.52304	-997.90207	1587.11029	614.23977	-1150.08095	1532.98126	675.85106	-1134.02168	1563.80844	515.80502	-1117.52342	1354.28207	740.20439	-969.44557	1120.10391	745.12497	-1002.44957	1066.86348	728.18932	-968.71490	1124.16397	688.62373	-746.96564	1137.21382	672.78435	-762.14127	1174.28917	693.99422	-777.67403	1186.43845	659.20403	-1097.11990	1352.08817	386.71928	-1125.68367	1036.11076	376.92955	-1055.66826	1054.08752	386.38130	-1089.07173	1045.78339	344.43382	-983.39767	842.20657	393.20347	-990.97313	838.68164	352.02637	-949.88281	859.08348	353.28091	-1062.13875	875.75836	733.59734	-1028.82515	889.73778	396.69441	-1021.93565	452.18861	641.84944	-1129.39156	487.49489	686.25359	-1108.78510	487.07127	568.13999	-1006.85280	464.19727	509.27372	-1092.93907	480.71709	414.56474	-1114.11400	480.12531	539.02168	-1097.66144	166.37844	664.04373	-1130.47081	163.75704	597.90749	-1178.97781	155.61984	666.96823	-1066.21895	166.33997	456.91864	-1127.57446	168.90015	421.89163	-1125.27771	173.84430	511.43452 
93	17.000	-212.70821	1073.99384	716.42670	-285.28795	1087.11319	520.91606	-119.57266	1118.42812	425.54089	-28.10440	1101.98967	654.37073	-220.64440	1439.69467	630.24532	-118.00394	1513.93677	630.17639	-338.23910	1625.11536	637.14165	-182.87863	1659.29581	582.01763	-193.13440	1628.86383	726.46645	-196.96186	1461.63574	427.86922	-301.58976	1170.15205	328.99227	-283.49230	1144.64691	384.11232	-336.15463	1227.43500	377.75108	-510.22011	1119.92477	485.27264	-522.72285	1163.88000	474.33571	-500.11524	1180.44014	506.85413	-93.14996	1425.87936	800.20790	-65.89617	1106.87935	794.04503	-118.25902	1129.49081	864.05136	-49.92853	1125.32623	862.40562	-199.11146	881.32027	856.14609	-184.68935	869.65073	899.97826	-139.93705	863.60313	887.10930	-165.62881	926.72455	381.94649	-118.32981	893.69705	744.00711	-235.08665	424.95903	412.61669	-163.06231	454.46236	365.76859	-172.90699	429.12376	488.34743	-175.40009	447.32521	695.85373	-69.54126	470.94059	676.49719	-170.50177	444.78371	602.37556	-200.71781	183.28812	378.89259	-178.50861	174.97923	441.29169	-124.51805	173.80812	372.73285	-120.31684	162.79907	681.21826	-66.54548	165.09565	619.66114	-146.07462	175.23834	614.11163	-978.46054	1034.39529	472.00958	-965.41481	1041.08414	630.84789	-1123.91701	1033.82797	652.82661	-1102.52327	1038.21129	470.15709	-1050.61310	1379.21524	568.15258	-1189.84077	1405.86578	562.13619	-999.25186	1589.11499	614.51542	-1151.12389	1532.93869	675.24773	-1134.43649	1563.77594	515.20073	-1116.26968	1354.76776	740.22736	-973.26912	1117.78923	747.93106	-1006.68556	1064.67262	731.36826	-971.92749	1121.20163	691.39809	-751.17012	1135.49644	677.51083	-767.52876	1173.39966	697.11990	-782.22267	1183.80478	661.40587	-1096.04660	1352.70813	386.63494	-1129.77783	1036.47751	375.90046	-1059.36989	1055.05051	385.63019	-1092.93816	1046.52817	343.78799	-979.44145	846.62910	395.82985	-988.43712	842.44675	354.46781	-948.10158	864.47029	355.01961	-1062.79922	875.81352	733.63518	-1030.22545	889.84375	396.34163	-1022.54875	452.18918	641.67290	-1129.97948	487.44511	686.24222	-1109.50409	487.06089	568.04596	-1007.42134	464.29710	508.99887	-1093.67355	480.67703	414.53907	-1114.80301	480.05520	538.98125	-1097.71988	166.38958	663.90404	-1130.67139	163.69968	597.88765	-1179.11247	155.56247	666.98334	-1066.48743	166.37634	456.86451	-1127.82707	168.83350	421.85963	-1125.52559	173.79339	511.44379 
94	17.017	-213.98243	1074.15024	717.62985	-285.81045	1087.49832	521.92574	-119.71551	1118.25378	426.99383	-28.57601	1101.59500	656.24992	-219.52250	1441.28571	631.38283	-115.48590	1513.26599	630.75665	-331.87080	1631.04538	637.36195	-175.64587	1659.69360	581.48781	-186.12396	1630.97015	726.13205	-195.08581	1461.54541	428.21648	-296.89672	1169.15062	327.31056	-279.00166	1143.51013	382.37892	-332.02583	1226.04843	376.17207	-505.89359	1118.50952	482.70462	-517.90730	1162.66556	472.55577	-495.19157	1178.38524	505.50713	-92.46371	1425.96451	801.31760	-67.60966	1106.75072	796.12625	-119.78380	1129.87411	866.03043	-51.50405	1125.29114	864.36935	-202.09524	882.09946	858.99872	-187.18517	870.38338	902.87849	-142.64170	864.12323	889.80118	-165.92211	926.64391	383.16486	-119.68888	893.55476	745.52322	-235.91721	424.87633	413.23399	-163.84333	454.46377	366.46202	-173.53909	428.91674	488.97408	-176.31933	447.16125	696.43143	-70.55262	470.97637	677.33910	-171.30892	444.69841	603.14472	-200.95592	183.25623	379.21268	-178.85998	174.97770	441.57047	-124.78701	173.93759	373.02528	-120.75557	162.72739	681.43570	-66.81724	165.23674	620.08629	-146.36850	175.19981	614.36108	-978.75694	1034.29977	471.60923	-965.50339	1040.83435	630.50880	-1123.93082	1034.40636	652.86903	-1102.53319	1038.54126	469.86732	-1048.82385	1380.06256	568.14678	-1188.47191	1404.94125	561.60999	-1000.66177	1591.19171	614.65199	-1152.69310	1532.71164	674.73053	-1134.78661	1563.58597	514.34155	-1114.76257	1355.39154	740.18265	-977.46063	1115.40298	751.13853	-1011.40884	1062.37717	735.06317	-975.57335	1118.02345	694.36905	-755.72090	1132.87903	682.27486	-773.31924	1171.54945	700.00618	-787.31087	1179.94583	663.43521	-1094.77539	1353.21381	386.54083	-1133.85849	1036.97632	374.68033	-1063.32596	1056.09512	385.29858	-1096.68564	1047.27135	342.97005	-974.62570	851.81503	398.94478	-985.36209	846.91849	357.29053	-946.01776	870.73021	357.07855	-1063.49411	875.92865	733.72528	-1031.41525	889.87083	396.16062	-1023.01956	452.18307	641.50391	-1130.61783	487.41783	686.25877	-1110.17662	486.99669	568.05683	-1008.16544	464.34544	508.91632	-1094.54636	480.65819	414.49211	-1115.50743	479.97673	538.90331	-1097.83646	166.40461	663.81233	-1130.89867	163.63697	597.88563	-1179.32457	155.51796	667.06169	-1066.72287	166.41876	456.80458	-1128.06198	168.75957	421.84982	-1125.75821	173.78376	511.41346 
